# xmcd
#
# Track frame offsets:
# 150
# 12920
# 37852
# 55987
# 80178
# 94419
# 123859
# 153296
# 174096
# 191004
# 217742
# 234644
# 250503
# 282089
#
# Disc length: 4169 seconds
#
# Revision: 0
# Processed by: cddbd v1.4PL0 Copyright (c) Steve Scherf et al.
# Submitted via: Axialis_AX_CDPlayer 2.6
#
DISCID=ac10470e
DTITLE=Various Artist - Portland's Genuine Blues
DYEAR=1900
DGENRE=
TTITLE0=Dyin' Blues - Albert Reda
TTITLE1=Take It Back - Ellen Whyte and Reflex Blue
TTITLE2=River Was Green - David Jacobs-Strain
TTITLE3=Can't Lose What You Never Had - Kinzel and Hyde
TTITLE4=Too Happy To Sing The Blues - The Norman Sylvester Band
TTITLE5=You Can't Live Long - Bill Rhoades And The Party Kings
TTITLE6=Mother Don't Think I'm An Angel - The Cannonballs
TTITLE7=Grinnin' In Your Face - Sheila Wilcoxson
TTITLE8=Paul Train - The Paul deLay Band
TTITLE9=Long Grey Mare - Bobby Sims
TTITLE10=Judge Boushay Blues - Terry Robb
TTITLE11=Swamp Thang - Robbie Laws
TTITLE12=Answering Machine Blues - Drawback Slim
TTITLE13=Amazing Grace - Linda Hornbuckle with No Delay
EXTD=
EXTT0=
EXTT1=
EXTT2=
EXTT3=
EXTT4=
EXTT5=
EXTT6=
EXTT7=
EXTT8=
EXTT9=
EXTT10=
EXTT11=
EXTT12=
EXTT13=
PLAYORDER=
